<svg width="45" height="44" viewBox="0 0 45 44" fill="none" xmlns="http://www.w3.org/2000/svg">
<g clip-path="url(#clip0_140_19385)">
<path d="M22.5 0C26.582 0 30.3467 1.00443 33.7939 3.0133C37.2412 5.02216 39.9707 7.74778 41.9824 11.1902C43.9941 14.6325 45 18.3918 45 22.4681C45 27.3635 43.5693 31.7664 40.708 35.6769C37.8467 39.5873 34.1504 42.2934 29.6191 43.7952C29.0918 43.8927 28.7012 43.8245 28.4473 43.5904C28.1934 43.3564 28.0664 43.0638 28.0664 42.7128C28.0664 42.6543 28.0713 41.9082 28.0811 40.4747C28.0908 39.0412 28.0957 37.7296 28.0957 36.5399C28.0957 34.648 27.5879 33.2633 26.5723 32.3856C27.6855 32.2686 28.6865 32.0931 29.5752 31.859C30.4639 31.625 31.3818 31.2447 32.3291 30.7181C33.2764 30.1915 34.0674 29.543 34.7021 28.7726C35.3369 28.0022 35.8545 26.9783 36.2549 25.7008C36.6553 24.4233 36.8555 22.9557 36.8555 21.2979C36.8555 18.9769 36.084 16.9681 34.541 15.2713C35.2637 13.4965 35.1855 11.5071 34.3066 9.30319C33.7598 9.12766 32.9688 9.23493 31.9336 9.625C30.8984 10.0151 30 10.4441 29.2383 10.9122L28.125 11.6144C26.3086 11.1073 24.4336 10.8537 22.5 10.8537C20.5664 10.8537 18.6914 11.1073 16.875 11.6144C16.5625 11.3998 16.1475 11.1365 15.6299 10.8245C15.1123 10.5124 14.2969 10.137 13.1836 9.69814C12.0703 9.25931 11.2402 9.12766 10.6934 9.30319C9.81445 11.5071 9.73633 13.4965 10.459 15.2713C8.91602 16.9681 8.14453 18.9769 8.14453 21.2979C8.14453 22.9557 8.34473 24.4184 8.74512 25.6862C9.14551 26.9539 9.6582 27.9778 10.2832 28.758C10.9082 29.5381 11.6943 30.1915 12.6416 30.7181C13.5889 31.2447 14.5068 31.625 15.3955 31.859C16.2842 32.0931 17.2852 32.2686 18.3984 32.3856C17.6367 33.0878 17.1582 34.0922 16.9629 35.3989C16.5527 35.594 16.1133 35.7402 15.6445 35.8378C15.1758 35.9353 14.6191 35.984 13.9746 35.984C13.3301 35.984 12.6904 35.7744 12.0557 35.3551C11.4209 34.9357 10.8789 34.3262 10.4297 33.5266C10.0586 32.9025 9.58496 32.3954 9.00879 32.0053C8.43262 31.6152 7.94922 31.3812 7.55859 31.3032L6.97266 31.2154C6.5625 31.2154 6.2793 31.2593 6.12305 31.3471C5.9668 31.4348 5.91797 31.547 5.97656 31.6835C6.03516 31.82 6.12305 31.9566 6.24023 32.0931C6.35742 32.2296 6.48438 32.3466 6.62109 32.4441L6.82617 32.5904C7.25586 32.7855 7.68066 33.156 8.10059 33.7021C8.52051 34.2482 8.82812 34.7456 9.02344 35.1941L9.31641 35.867C9.57031 36.6082 10 37.2079 10.6055 37.6662C11.2109 38.1246 11.8652 38.4171 12.5684 38.5439C13.2715 38.6707 13.9502 38.7389 14.6045 38.7487C15.2588 38.7584 15.8008 38.7243 16.2305 38.6463L16.9043 38.5293C16.9043 39.2704 16.9092 40.1334 16.9189 41.1183C16.9287 42.1033 16.9336 42.6348 16.9336 42.7128C16.9336 43.0638 16.8066 43.3564 16.5527 43.5904C16.2988 43.8245 15.9082 43.8927 15.3809 43.7952C10.8496 42.2934 7.15332 39.5873 4.29199 35.6769C1.43066 31.7664 0 27.3635 0 22.4681C0 18.3918 1.00586 14.6325 3.01758 11.1902C5.0293 7.74778 7.75879 5.02216 11.2061 3.0133C14.6533 1.00443 18.418 0 22.5 0ZM8.52539 32.2686C8.58398 32.1321 8.51562 32.0151 8.32031 31.9176C8.125 31.859 7.99805 31.8785 7.93945 31.9761C7.88086 32.1126 7.94922 32.2296 8.14453 32.3271C8.32031 32.4441 8.44727 32.4246 8.52539 32.2686ZM9.43359 33.2633C9.57031 33.1658 9.55078 33.0098 9.375 32.7952C9.17969 32.6197 9.02344 32.5904 8.90625 32.7074C8.76953 32.805 8.78906 32.961 8.96484 33.1755C9.16016 33.3706 9.31641 33.3998 9.43359 33.2633ZM10.3125 34.5798C10.4883 34.4433 10.4883 34.258 10.3125 34.0239C10.1562 33.7704 9.99023 33.7119 9.81445 33.8484C9.63867 33.9459 9.63867 34.1215 9.81445 34.375C9.99023 34.6285 10.1562 34.6968 10.3125 34.5798ZM11.543 35.8085C11.6992 35.6525 11.6602 35.4672 11.4258 35.2527C11.1914 35.0186 10.9961 34.9894 10.8398 35.1649C10.6641 35.3209 10.7031 35.5062 10.957 35.7207C11.1914 35.9548 11.3867 35.984 11.543 35.8085ZM13.2129 36.5399C13.2715 36.3254 13.1445 36.1693 12.832 36.0718C12.5391 35.9938 12.3535 36.0621 12.2754 36.2766C12.1973 36.4911 12.3242 36.6374 12.6562 36.7154C12.9492 36.8324 13.1348 36.7739 13.2129 36.5399ZM15.0586 36.6862C15.0586 36.4326 14.8926 36.3254 14.5605 36.3644C14.248 36.3644 14.0918 36.4716 14.0918 36.6862C14.0918 36.9397 14.2578 37.047 14.5898 37.008C14.9023 37.008 15.0586 36.9007 15.0586 36.6862ZM16.7578 36.3936C16.7188 36.1791 16.543 36.0913 16.2305 36.1303C15.918 36.1888 15.7812 36.3351 15.8203 36.5691C15.8594 36.8032 16.0352 36.8812 16.3477 36.8032C16.6602 36.7252 16.7969 36.5886 16.7578 36.3936Z" fill="black"/>
</g>
<defs>
<clipPath id="clip0_140_19385">
<rect width="45" height="44" fill="white"/>
</clipPath>
</defs>
</svg>
