<svg width="52" height="52" viewBox="0 0 52 52" fill="none" xmlns="http://www.w3.org/2000/svg">
<path d="M47.2439 21.7553H45.4987V21.6654H25.9987V30.332H38.2436C36.4572 35.3771 31.6569 38.9987 25.9987 38.9987C18.8194 38.9987 12.9987 33.1779 12.9987 25.9987C12.9987 18.8194 18.8194 12.9987 25.9987 12.9987C29.3126 12.9987 32.3275 14.2489 34.6231 16.2909L40.7515 10.1625C36.8819 6.55611 31.7057 4.33203 25.9987 4.33203C14.0333 4.33203 4.33203 14.0333 4.33203 25.9987C4.33203 37.9641 14.0333 47.6654 25.9987 47.6654C37.9641 47.6654 47.6654 37.9641 47.6654 25.9987C47.6654 24.5459 47.5159 23.1279 47.2439 21.7553Z" fill="#FFC107"/>
<path d="M6.83203 15.9139L13.9506 21.1345C15.8768 16.3657 20.5416 12.9987 26.0005 12.9987C29.3144 12.9987 32.3294 14.2489 34.625 16.2909L40.7534 10.1625C36.8837 6.55611 31.7075 4.33203 26.0005 4.33203C17.6784 4.33203 10.4612 9.03045 6.83203 15.9139Z" fill="#FF3D00"/>
<path d="M25.9997 47.6655C31.5962 47.6655 36.6814 45.5237 40.5261 42.0408L33.8203 36.3663C31.5719 38.0762 28.8244 39.001 25.9997 38.9988C20.3642 38.9988 15.5791 35.4054 13.7764 30.3906L6.71094 35.8344C10.2968 42.8511 17.5789 47.6655 25.9997 47.6655Z" fill="#4CAF50"/>
<path d="M47.2452 21.7579H45.5V21.668H26V30.3346H38.2449C37.3904 32.7358 35.8511 34.8339 33.8173 36.3699L33.8206 36.3677L40.5264 42.0422C40.0519 42.4734 47.6667 36.8346 47.6667 26.0013C47.6667 24.5486 47.5172 23.1305 47.2452 21.7579Z" fill="#1976D2"/>
</svg>
