<svg width="49" height="48" viewBox="0 0 49 48" fill="none" xmlns="http://www.w3.org/2000/svg">
<path d="M24.1992 0C17.8355 0 11.7267 2.53013 7.23047 7.02938C2.72958 11.5304 0.200466 17.6347 0.199219 24C0.199219 30.3626 2.73047 36.4714 7.23047 40.9706C11.7267 45.4699 17.8355 48 24.1992 48C30.563 48 36.6717 45.4699 41.168 40.9706C45.668 36.4714 48.1992 30.3626 48.1992 24C48.1992 17.6374 45.668 11.5286 41.168 7.02938C36.6717 2.53013 30.563 0 24.1992 0Z" fill="url(#paint0_linear_140_19377)"/>
<path d="M11.8656 23.4238C18.8631 20.3758 23.5281 18.3662 25.8606 17.3953C32.5281 14.623 33.9119 14.1415 34.8156 14.1251C35.0144 14.122 35.4569 14.1711 35.7456 14.4045C35.9856 14.6014 36.0531 14.8676 36.0869 15.0546C36.1169 15.2413 36.1581 15.667 36.1244 15.9992C35.7644 19.7942 34.2006 29.0035 33.4056 33.2541C33.0719 35.0526 32.4081 35.6556 31.7669 35.7145C30.3719 35.8427 29.3144 34.7935 27.9644 33.9088C25.8531 32.524 24.6606 31.6622 22.6094 30.3111C20.2394 28.7496 21.7769 27.8912 23.1269 26.4887C23.4794 26.1216 29.6219 20.536 29.7381 20.0293C29.7531 19.966 29.7681 19.7297 29.6256 19.6052C29.4869 19.4803 29.2806 19.5231 29.1306 19.5568C28.9169 19.6048 25.5456 21.8353 19.0056 26.248C18.0494 26.9057 17.1831 27.2263 16.4031 27.2095C15.5481 27.1911 13.8981 26.725 12.6719 26.3267C11.1719 25.8381 9.97564 25.5797 10.0806 24.7498C10.1331 24.3178 10.7294 23.8757 11.8656 23.4238Z" fill="#F9FAFB"/>
<defs>
<linearGradient id="paint0_linear_140_19377" x1="2400.2" y1="0" x2="2400.2" y2="4800" gradientUnits="userSpaceOnUse">
<stop stop-color="#2AABEE"/>
<stop offset="1" stop-color="#229ED9"/>
</linearGradient>
</defs>
</svg>
